<svg width="166" height="42" viewBox="0 0 166 42" fill="none" xmlns="http://www.w3.org/2000/svg">
    <path
        d="M50.2642 25.7571V28.3243H40.1948L37.1953 25.5431V16.1298L40.1948 13.3486H50.2642V15.9159H41.5873L40.1948 17.1995V24.4734L41.5873 25.7571H50.2642Z"
        fill="white" />
    <path
        d="M60.6447 23.4099H56.0385V28.3243H53.0391V13.3486H63.8583L66.6435 15.9315V20.8459L64.0726 23.3031L67.7147 28.3243H64.1797L60.6447 23.4099ZM63.6441 16.9998L62.4658 15.9315H56.0385V20.8459H62.4658L63.6441 19.7776V16.9998Z"
        fill="white" />
    <path
        d="M70.0703 13.3486H82.925V15.9315H73.0697V19.5639H80.5683V22.1279H73.0697V25.7603H83.1392V28.3243H70.0703V13.3486Z"
        fill="white" />
    <path
        d="M95.8928 17.4272L92.572 28.3243H88.6084L84.1094 13.3486H87.3229L90.6437 25.1193L94.0716 13.3486H97.7138L101.142 25.1193L104.463 13.3486H107.676L103.177 28.3243H99.2136L95.8928 17.4272Z"
        fill="white" />
    <path
        d="M113.58 15.854L112.187 17.102V24.5898L113.58 25.8377H119.471L120.864 24.5898V17.102L119.471 15.854H113.58ZM112.187 13.3486H120.864L123.863 16.062V25.6298L120.864 28.3337H112.187L109.188 25.6298V16.062L112.187 13.3486Z"
        fill="white" />
    <path
        d="M134.793 23.4099H130.187V28.3243H127.188V13.3486H138.006L140.792 15.9315V20.8459L138.222 23.3031L141.863 28.3243H138.329L134.793 23.4099ZM137.792 16.9998L136.614 15.9315H130.187V20.8459H136.614L137.792 19.7776V16.9998Z"
        fill="white" />
    <path
        d="M147.218 22.1279V28.3243H144.219V13.3486H147.218V19.5639H149.789L154.395 13.3486H158.019L152.575 20.6322L158.466 28.3243H154.824L150.11 22.1279H147.218Z"
        fill="white" />
    <path fillRule="evenodd" clipRule="evenodd"
        d="M10.4219 14.8099C10.4219 12.7436 12.7482 10.4268 14.8228 10.4268H26.9252C28.9998 10.4268 31.3261 12.7436 31.3261 14.8099V26.8635C31.3261 28.9297 28.9998 31.2466 26.9252 31.2466C25.9953 31.2466 15.6228 31.2843 14.8225 31.2843C12.7482 31.2843 10.4219 28.9297 10.4219 26.8635V14.8099ZM19.2237 13.3488C18.3214 13.3488 13.3558 18.2919 13.3558 19.193C13.3558 20.2888 13.3558 21.3846 13.3558 22.4804C13.3558 23.3807 18.3214 28.3245 19.2237 28.3245C20.3239 28.3245 21.4241 28.3245 22.5243 28.3245C23.4269 28.3245 28.3921 23.3807 28.3921 22.4804C28.3921 21.3846 28.3921 20.2888 28.3921 19.193C28.3921 18.2919 23.4269 13.3488 22.5243 13.3488C21.4241 13.3488 20.3239 13.3488 19.2237 13.3488Z"
        fill="#FF4C00" />
</svg>
    